<?xml version="1.0" encoding="utf-8"?>
<svg viewBox="94.6496 120.8435 298.9947 191.7931" width="298.995px" height="191.793px" xmlns="http://www.w3.org/2000/svg">
  <g transform="matrix(0.20906701683998108, 0, 0, 0.20906701683998108, 53.56666263292226, 51.16480712838183)">
    <g>
      <g>
        <g>
          <path d="M 454.002 533.114 L 536.819 533.114 L 536.819 755.263 C 536.819 790.516 537.844 813.366 539.896 823.811 C 543.44 840.598 551.88 854.074 565.217 864.24 C 578.553 874.405 596.786 879.488 619.915 879.488 C 643.417 879.488 661.136 874.685 673.074 865.079 C 685.011 855.473 692.192 843.675 694.618 829.686 C 697.042 815.697 698.255 792.475 698.255 760.02 L 698.255 533.114 L 781.071 533.114 L 781.071 748.549 C 781.071 797.791 778.832 832.577 774.356 852.908 C 769.88 873.239 761.626 890.4 749.595 904.389 C 737.564 918.378 721.476 929.523 701.332 937.823 C 681.188 946.124 654.888 950.274 622.433 950.274 C 583.263 950.274 553.559 945.751 533.322 936.704 C 513.084 927.657 497.089 915.906 485.338 901.451 C 473.587 886.996 465.846 871.841 462.116 855.986 C 456.706 832.484 454.002 797.791 454.002 751.906 L 454.002 533.114 Z M 868.626 943.279 L 868.626 533.114 L 1042.932 533.114 C 1086.765 533.114 1118.614 536.798 1138.479 544.165 C 1158.343 551.533 1174.244 564.636 1186.182 583.475 C 1198.12 602.314 1204.089 623.858 1204.089 648.106 C 1204.089 678.882 1195.042 704.296 1176.95 724.347 C 1158.856 744.398 1131.81 757.035 1095.812 762.258 C 1113.718 772.703 1128.5 784.175 1140.158 796.672 C 1151.815 809.169 1167.53 831.365 1187.302 863.26 L 1237.383 943.279 L 1138.339 943.279 L 1078.465 854.028 C 1057.201 822.132 1042.653 802.034 1034.819 793.734 C 1026.985 785.433 1018.684 779.744 1009.918 776.667 C 1001.151 773.589 987.255 772.05 968.23 772.05 L 951.443 772.05 L 951.443 943.279 L 868.626 943.279 Z M 951.443 706.581 L 1012.716 706.581 C 1052.445 706.581 1077.252 704.902 1087.138 701.545 C 1097.024 698.187 1104.765 692.405 1110.361 684.198 C 1115.956 675.991 1118.754 665.732 1118.754 653.422 C 1118.754 639.619 1115.07 628.474 1107.703 619.987 C 1100.335 611.5 1089.936 606.138 1076.507 603.9 C 1069.791 602.967 1049.647 602.501 1016.073 602.501 L 951.443 602.501 L 951.443 706.581 Z M 1284.4 943.279 L 1284.4 536.471 L 1367.216 536.471 L 1367.216 874.172 L 1573.138 874.172 L 1573.138 943.279 L 1284.4 943.279 Z" style="fill: rgb(67, 59, 255);"/>
          <path d="M 329.607 333.284 L 412.424 333.284 L 412.424 555.433 C 412.424 590.686 413.449 613.535 415.501 623.981 C 419.045 640.767 427.485 654.244 440.822 664.41 C 454.158 674.575 472.391 679.658 495.52 679.658 C 519.022 679.658 536.741 674.855 548.679 665.249 C 560.616 655.643 567.797 643.845 570.223 629.856 C 572.647 615.866 573.86 592.644 573.86 560.19 L 573.86 333.284 L 656.676 333.284 L 656.676 548.719 C 656.676 597.961 654.437 632.747 649.961 653.078 C 645.485 673.409 637.231 690.569 625.2 704.559 C 613.169 718.548 597.081 729.693 576.937 737.993 C 556.793 746.293 530.493 750.444 498.038 750.444 C 458.868 750.444 429.164 745.92 408.927 736.874 C 388.689 727.827 372.694 716.076 360.943 701.621 C 349.192 687.165 341.451 672.01 337.721 656.156 C 332.311 632.654 329.607 597.96 329.607 552.076 L 329.607 333.284 Z" style="fill: rgb(47, 39, 206); transform-box: fill-box; transform-origin: 50% 50%;" transform="matrix(-1, 0, 0, -1, -0.000264, -0.000031)"/>
          <path d="M 255.342 1247.279 L 255.342 1082.54 L 196.506 1082.54 L 196.506 1048.997 L 354.077 1048.997 L 354.077 1082.54 L 295.377 1082.54 L 295.377 1247.279 L 255.342 1247.279 Z M 366.767 1149.355 C 366.767 1129.157 369.788 1112.205 375.829 1098.5 C 380.338 1088.401 386.492 1079.339 394.291 1071.314 C 402.091 1063.289 410.635 1057.337 419.922 1053.46 C 432.275 1048.23 446.522 1045.615 462.662 1045.615 C 491.877 1045.615 515.253 1054.677 532.791 1072.801 C 550.329 1090.925 559.098 1116.127 559.098 1148.408 C 559.098 1180.419 550.397 1205.463 532.994 1223.542 C 515.591 1241.621 492.328 1250.66 463.203 1250.66 C 433.718 1250.66 410.274 1241.666 392.871 1223.677 C 375.468 1205.688 366.767 1180.914 366.767 1149.355 Z M 408.019 1148.003 C 408.019 1170.455 413.204 1187.474 423.574 1199.061 C 433.943 1210.648 447.108 1216.441 463.068 1216.441 C 479.028 1216.441 492.125 1210.693 502.359 1199.196 C 512.593 1187.699 517.71 1170.455 517.71 1147.462 C 517.71 1124.739 512.728 1107.787 502.765 1096.606 C 492.801 1085.425 479.569 1079.835 463.068 1079.835 C 446.567 1079.835 433.267 1085.493 423.168 1096.809 C 413.069 1108.125 408.019 1125.19 408.019 1148.003 Z M 582.215 1149.355 C 582.215 1129.157 585.236 1112.205 591.277 1098.5 C 595.786 1088.401 601.94 1079.339 609.739 1071.314 C 617.539 1063.289 626.083 1057.337 635.37 1053.46 C 647.723 1048.23 661.97 1045.615 678.11 1045.615 C 707.325 1045.615 730.701 1054.677 748.239 1072.801 C 765.777 1090.925 774.546 1116.127 774.546 1148.408 C 774.546 1180.419 765.845 1205.463 748.442 1223.542 C 731.039 1241.621 707.776 1250.66 678.651 1250.66 C 649.166 1250.66 625.722 1241.666 608.319 1223.677 C 590.916 1205.688 582.215 1180.914 582.215 1149.355 Z M 623.468 1148.003 C 623.468 1170.455 628.653 1187.474 639.022 1199.061 C 649.391 1210.648 662.556 1216.441 678.516 1216.441 C 694.476 1216.441 707.573 1210.693 717.807 1199.196 C 728.041 1187.699 733.158 1170.455 733.158 1147.462 C 733.158 1124.739 728.176 1107.787 718.213 1096.606 C 708.249 1085.425 695.017 1079.835 678.516 1079.835 C 662.015 1079.835 648.715 1085.493 638.616 1096.809 C 628.517 1108.125 623.468 1125.19 623.468 1148.003 Z M 806.891 1247.279 L 806.891 1050.62 L 846.926 1050.62 L 846.926 1213.871 L 946.473 1213.871 L 946.473 1247.279 L 806.891 1247.279 Z M 1047.076 1048.997 L 1126.334 1048.997 C 1142.023 1048.997 1153.723 1049.651 1161.433 1050.958 C 1169.142 1052.265 1176.04 1054.993 1182.127 1059.141 C 1188.213 1063.288 1193.285 1068.811 1197.343 1075.709 C 1201.4 1082.607 1203.429 1090.339 1203.429 1098.905 C 1203.429 1108.193 1200.927 1116.714 1195.922 1124.468 C 1190.918 1132.223 1184.133 1138.039 1175.567 1141.916 C 1187.65 1145.433 1196.937 1151.429 1203.429 1159.905 C 1209.921 1168.381 1213.167 1178.345 1213.167 1189.796 C 1213.167 1198.813 1211.071 1207.582 1206.878 1216.103 C 1202.685 1224.624 1196.96 1231.431 1189.701 1236.526 C 1182.442 1241.621 1173.493 1244.754 1162.853 1245.926 C 1156.18 1246.647 1140.085 1247.098 1114.567 1247.279 L 1047.076 1247.279 L 1047.076 1048.997 Z M 1087.111 1081.999 L 1087.111 1127.85 L 1113.35 1127.85 C 1128.949 1127.85 1138.643 1127.625 1142.43 1127.174 C 1149.283 1126.362 1154.67 1123.995 1158.592 1120.073 C 1162.515 1116.15 1164.476 1110.988 1164.476 1104.586 C 1164.476 1098.455 1162.785 1093.473 1159.404 1089.641 C 1156.023 1085.808 1150.996 1083.486 1144.323 1082.675 C 1140.356 1082.224 1128.949 1081.999 1110.104 1081.999 L 1087.111 1081.999 Z M 1087.111 1160.852 L 1087.111 1213.871 L 1124.17 1213.871 C 1138.597 1213.871 1147.75 1213.465 1151.627 1212.654 C 1157.578 1211.572 1162.425 1208.935 1166.167 1204.742 C 1169.909 1200.549 1171.78 1194.936 1171.78 1187.903 C 1171.78 1181.952 1170.337 1176.902 1167.451 1172.754 C 1164.566 1168.606 1160.395 1165.585 1154.94 1163.692 C 1149.485 1161.799 1137.651 1160.852 1119.436 1160.852 L 1087.111 1160.852 Z M 1238.851 1149.355 C 1238.851 1129.157 1241.872 1112.205 1247.913 1098.5 C 1252.422 1088.401 1258.576 1079.339 1266.375 1071.314 C 1274.175 1063.289 1282.719 1057.337 1292.006 1053.46 C 1304.359 1048.23 1318.606 1045.615 1334.746 1045.615 C 1363.961 1045.615 1387.337 1054.677 1404.875 1072.801 C 1422.413 1090.925 1431.182 1116.127 1431.182 1148.408 C 1431.182 1180.419 1422.481 1205.463 1405.078 1223.542 C 1387.675 1241.621 1364.412 1250.66 1335.287 1250.66 C 1305.802 1250.66 1282.358 1241.666 1264.955 1223.677 C 1247.552 1205.688 1238.851 1180.914 1238.851 1149.355 Z M 1280.104 1148.003 C 1280.104 1170.455 1285.289 1187.474 1295.658 1199.061 C 1306.027 1210.648 1319.192 1216.441 1335.152 1216.441 C 1351.112 1216.441 1364.209 1210.693 1374.443 1199.196 C 1384.678 1187.699 1389.795 1170.455 1389.795 1147.462 C 1389.795 1124.739 1384.813 1107.787 1374.849 1096.606 C 1364.885 1085.425 1351.653 1079.835 1335.152 1079.835 C 1318.651 1079.835 1305.351 1085.493 1295.252 1096.809 C 1285.153 1108.125 1280.104 1125.19 1280.104 1148.003 Z M 1442.292 1247.279 L 1510.055 1143.81 L 1448.649 1048.997 L 1495.447 1048.997 L 1535.212 1112.701 L 1574.165 1048.997 L 1620.557 1048.997 L 1558.881 1145.298 L 1626.644 1247.279 L 1578.358 1247.279 L 1534.4 1178.705 L 1490.308 1247.279 L 1442.292 1247.279 Z" style="fill: rgb(67, 59, 255);"/>
        </g>
      </g>
    </g>
  </g>
</svg>
